<?xml version="1.0" standalone="no"?>
<!DOCTYPE svg PUBLIC "-//W3C//DTD SVG 20010904//EN"
 "http://www.w3.org/TR/2001/REC-SVG-20010904/DTD/svg10.dtd">
<svg version="1.0" xmlns="http://www.w3.org/2000/svg"
 width="300.000000pt" height="325.000000pt" viewBox="0 0 300.000000 325.000000"
 preserveAspectRatio="xMidYMid meet">

<g transform="translate(0.000000,325.000000) scale(0.100000,-0.100000)"
fill="#000000" stroke="none">
<path d="M790 3096 c-132 -37 -206 -122 -245 -282 -22 -92 -45 -115 -148 -143
-175 -47 -249 -117 -278 -263 -21 -102 32 -245 129 -350 150 -163 443 -315
662 -344 61 -8 76 -24 22 -24 -96 0 -315 -51 -425 -99 -78 -34 -187 -109 -247
-170 -105 -107 -163 -263 -140 -371 16 -73 40 -117 87 -161 49 -47 98 -71 200
-99 45 -12 89 -30 98 -40 10 -11 28 -59 42 -107 39 -139 92 -212 183 -251 99
-44 195 -37 315 22 168 83 258 239 346 602 17 71 32 130 33 131 0 1 1 -146 2
-325 0 -226 6 -376 17 -486 9 -87 18 -160 19 -161 5 -6 288 -18 288 -13 0 3
-9 40 -20 84 -44 170 -122 719 -119 839 2 61 3 54 24 -105 46 -337 122 -483
298 -569 218 -107 423 -25 482 194 41 153 47 159 183 195 188 51 282 185 254
359 -34 202 -228 390 -483 469 -60 18 -223 47 -309 55 -31 2 -29 4 25 15 313
66 628 279 731 492 35 73 49 163 35 230 -30 141 -114 213 -308 260 -68 17 -91
44 -114 135 -39 151 -107 236 -222 274 -73 25 -89 26 -162 6 -259 -67 -442
-310 -495 -655 -5 -36 -10 -83 -10 -105 -1 -49 -14 -30 -25 35 -28 172 -162
408 -321 567 -90 90 -164 134 -266 158 -73 17 -79 17 -138 1z m149 -17 c90
-20 153 -60 251 -159 185 -185 294 -400 332 -650 l12 -85 8 70 c24 206 40 292
69 380 70 212 225 382 396 435 202 62 357 -36 409 -257 25 -109 43 -126 173
-158 84 -21 128 -44 172 -92 66 -69 82 -113 77 -219 -5 -124 -41 -197 -153
-309 -175 -177 -426 -301 -676 -335 -46 -6 -85 -13 -87 -15 -2 -1 34 -6 80
-10 341 -28 537 -99 693 -253 173 -170 198 -418 53 -535 -57 -46 -89 -61 -177
-82 -105 -25 -125 -47 -160 -167 -56 -194 -146 -266 -322 -256 -104 6 -190 47
-273 130 -52 52 -68 77 -94 145 -34 87 -70 265 -97 483 -22 165 -34 195 -35
80 0 -200 64 -706 121 -953 12 -49 19 -90 17 -92 -2 -2 -60 -1 -130 2 l-126 6
-11 106 c-31 290 -38 604 -20 861 6 84 9 154 7 156 -2 2 -23 -83 -47 -188
-100 -447 -182 -603 -367 -695 -66 -32 -90 -39 -155 -42 -171 -7 -268 72 -319
263 -11 43 -25 87 -30 96 -15 27 -50 45 -124 64 -175 43 -264 135 -274 281
-13 210 172 425 449 521 104 35 232 61 384 76 142 14 145 11 -45 43 -235 40
-458 148 -617 299 -88 83 -127 140 -153 224 -63 202 27 353 243 408 115 30
138 51 163 151 21 81 33 112 67 161 66 98 188 141 316 111z m668 -1931 c-3 -8
-6 -5 -6 6 -1 11 2 17 5 13 3 -3 4 -12 1 -19z"/>
</g>
</svg>
